<?xml version="1.0" standalone="no"?>
<!DOCTYPE svg PUBLIC "-//W3C//DTD SVG 20010904//EN"
 "http://www.w3.org/TR/2001/REC-SVG-20010904/DTD/svg10.dtd">
<svg version="1.0" xmlns="http://www.w3.org/2000/svg"
 width="981.000000pt" height="980.000000pt" viewBox="0 0 981.000000 980.000000"
 preserveAspectRatio="xMidYMid meet">

<g transform="translate(0.000000,980.000000) scale(0.100000,-0.100000)"
fill="#000000" stroke="none">
<path d="M7175 9794 c-232 -25 -440 -106 -615 -238 -111 -84 -1539 -1515
-1603 -1607 -221 -315 -272 -713 -137 -1081 34 -93 103 -217 169 -302 22 -28
386 -396 808 -817 692 -690 778 -773 869 -832 423 -279 879 -286 1229 -19 47
35 409 390 866 849 819 822 834 838 916 1005 85 172 117 318 117 528 0 165
-13 256 -59 390 -36 106 -111 243 -186 338 -89 115 -1493 1514 -1579 1574
-129 90 -291 159 -452 192 -79 16 -272 27 -343 20z m250 -414 c85 -22 180 -69
260 -130 85 -64 1459 -1441 1487 -1490 45 -76 97 -215 125 -327 47 -195 35
-370 -38 -523 -29 -60 -97 -131 -818 -852 l-786 -787 -60 -18 c-132 -39 -440
-14 -631 50 -158 54 -129 29 -873 770 -381 381 -720 726 -754 767 -207 257
-220 556 -37 831 49 74 1430 1465 1550 1562 81 65 201 128 290 151 79 21 193
19 285 -4z"/>
<path d="M995 9399 c-517 -75 -917 -482 -985 -1002 -8 -56 -10 -435 -8 -1177
4 -1089 4 -1096 26 -1192 104 -456 381 -763 772 -855 70 -17 160 -18 1270 -18
l1195 0 98 27 c220 61 378 152 537 308 150 147 232 275 298 462 63 177 62 157
62 1330 0 1009 -1 1073 -19 1165 -95 488 -499 874 -991 949 -78 11 -278 14
-1145 13 -577 -1 -1077 -5 -1110 -10z m2338 -456 c118 -34 203 -80 279 -152
110 -103 174 -233 198 -397 8 -55 10 -383 8 -1099 l-3 -1020 -46 -111 c-69
-168 -131 -266 -234 -370 -95 -96 -147 -131 -254 -173 l-66 -26 -1110 -3
-1110 -3 -60 30 c-127 63 -309 270 -413 469 -89 172 -83 73 -80 1253 3 1042 3
1044 25 1122 36 125 86 211 178 302 109 109 223 167 383 195 26 4 537 7 1137
6 l1090 -1 78 -22z"/>
<path d="M920 4239 c-402 -84 -729 -377 -860 -769 -60 -176 -60 -183 -60
-1340 0 -866 3 -1073 15 -1155 42 -290 145 -509 327 -692 123 -125 257 -202
438 -252 l95 -26 1175 0 c1109 0 1180 1 1260 19 452 99 794 425 918 875 l27
96 3 1099 c3 1197 4 1179 -54 1351 -135 404 -481 709 -903 795 -96 19 -132 20
-1193 19 -1050 0 -1097 -1 -1188 -20z m2435 -447 c250 -84 394 -244 446 -494
18 -88 19 -147 19 -1115 l0 -1021 -31 -89 c-114 -323 -304 -536 -544 -610 -57
-17 -120 -18 -1160 -18 l-1100 0 -50 27 c-110 59 -228 179 -341 349 -70 104
-128 221 -143 290 -14 59 -14 2019 -1 2113 44 303 239 514 535 581 49 11 270
13 1180 12 l1120 -2 70 -23z"/>
<path d="M6140 4253 c-319 -53 -578 -208 -766 -458 -91 -121 -148 -242 -197
-415 -21 -74 -21 -89 -25 -1205 -2 -966 -1 -1144 12 -1225 82 -521 422 -883
881 -939 122 -15 2196 -15 2315 0 539 66 970 493 1040 1029 13 104 13 2080 0
2188 -32 250 -154 496 -340 682 -148 148 -340 260 -545 317 l-100 28 -1125 1
c-619 1 -1136 0 -1150 -3z m2360 -461 c116 -36 187 -79 272 -163 87 -85 131
-164 170 -304 l23 -80 3 -1036 3 -1035 -32 -90 c-110 -311 -291 -530 -501
-604 -30 -10 -84 -24 -119 -29 -41 -7 -434 -11 -1110 -11 -904 0 -1052 2
-1089 15 -63 22 -159 95 -235 177 -85 93 -213 285 -257 385 l-33 78 0 1080 0
1080 23 75 c60 190 175 331 334 410 170 84 88 79 1353 77 l1120 -2 75 -23z"/>
</g>
</svg>
